<?xml version="1.0" encoding="utf-8"?>
<!-- Generator: Adobe Illustrator 16.0.0, SVG Export Plug-In . SVG Version: 6.00 Build 0)  -->
<!DOCTYPE svg PUBLIC "-//W3C//DTD SVG 1.1//EN" "http://www.w3.org/Graphics/SVG/1.1/DTD/svg11.dtd">
<svg version="1.1" id="Capa_1" xmlns="http://www.w3.org/2000/svg" xmlns:xlink="http://www.w3.org/1999/xlink" x="0px" y="0px"
	 width="670.717px" height="670.541px" viewBox="0 0 670.717 670.541" enable-background="new 0 0 670.717 670.541"
	 xml:space="preserve">
<g>
	<g>
		<path fill="#5D0479" d="M535.824,670.541c-98.736,0-232.034-71.955-347.857-187.779C17.598,312.383-47.486,120.497,36.595,36.428
			C60.416,12.597,94.474,0.011,135.072,0.011c98.746,0,232.033,71.944,347.845,187.769c76.844,76.844,135.807,163.09,166.006,242.86
			c33.447,88.336,28.258,160.613-14.633,203.474C610.48,657.934,576.422,670.541,535.824,670.541z M135.072,65.877
			c-23.081,0-40.544,5.757-51.908,17.12c-47.717,47.728,2.712,204.514,151.373,353.195
			C335.32,536.965,456.396,604.675,535.824,604.675c23.068,0,40.533-5.768,51.885-17.131c23.146-23.135,23.008-71.827-0.385-133.577
			c-26.973-71.227-80.585-149.229-150.975-219.618C335.587,133.576,214.511,65.877,135.072,65.877z"/>
	</g>
	<g>
		<path fill="#5D0479" d="M135.083,670.541c-40.609,0-74.657-12.607-98.488-36.428c-42.871-42.86-48.06-115.116-14.623-203.452
			c30.21-79.781,89.151-166.038,165.984-242.86C303.791,71.955,437.078,0,535.813,0c40.609,0,74.656,12.597,98.488,36.428
			c42.871,42.86,48.061,115.116,14.623,203.463c-30.211,79.771-89.152,166.027-165.985,242.85
			C367.105,598.586,233.818,670.541,135.083,670.541z M535.813,65.866c-79.417,0-200.493,67.721-301.287,168.504
			c-70.369,70.379-123.982,148.37-150.955,219.597c-23.381,61.771-23.521,110.442-0.396,133.577
			c11.375,11.363,28.827,17.131,51.908,17.131c79.417,0,200.494-67.71,301.288-168.504
			c70.368-70.368,123.981-148.37,150.954-219.607c23.381-61.761,23.52-110.442,0.396-133.556
			C576.346,71.634,558.893,65.866,535.813,65.866z"/>
	</g>
	<g>
		<path fill="#5D0479" d="M417.781,335.271c0,45.476-36.857,82.333-82.333,82.333s-82.333-36.857-82.333-82.333
			s36.857-82.333,82.333-82.333S417.781,289.795,417.781,335.271z"/>
	</g>
</g>
</svg>
