<?xml version="1.0" encoding="utf-8"?>
<!-- Generator: Adobe Illustrator 16.0.0, SVG Export Plug-In . SVG Version: 6.00 Build 0)  -->
<!DOCTYPE svg PUBLIC "-//W3C//DTD SVG 1.1//EN" "http://www.w3.org/Graphics/SVG/1.1/DTD/svg11.dtd">
<svg version="1.1" id="Capa_1" xmlns="http://www.w3.org/2000/svg" xmlns:xlink="http://www.w3.org/1999/xlink" x="0px" y="0px"
	 width="688.076px" height="499.75px" viewBox="0 0 688.076 499.75" enable-background="new 0 0 688.076 499.75"
	 xml:space="preserve">
<g>
	<path fill="none" d="M186.492,360.969c54.745,0,97.899-17.063,118.974-38.06c-74.374-9.093-131.746-45.706-146.451-93.371
		c-63.437,6.976-105.622,37.359-105.622,64.977C53.394,325.952,108.048,360.969,186.492,360.969z"/>
	<path fill="none" d="M372.921,381.984c-0.099,3.911-0.476,7.77-1.117,11.571c12.893,27.123,62.619,52.81,129.788,52.81
		c78.445,0,133.099-35.018,133.099-66.454v-0.701c-33.598,21.81-80.478,35.145-133.099,35.145
		C451.24,414.354,406.148,402.145,372.921,381.984z"/>
	<path fill="none" d="M186.492,414.354c-52.625,0-99.502-13.332-133.099-35.138v0.694c0,31.437,54.654,66.454,133.099,66.454
		c67.17,0,116.896-25.687,129.79-52.81c-0.642-3.802-1.019-7.661-1.117-11.571C281.937,402.145,236.845,414.354,186.492,414.354z"/>
	<path fill="none" d="M382.104,322.399c20.885,21.23,64.3,38.569,119.487,38.569c78.445,0,133.099-35.017,133.099-66.454
		c0-28.242-44.115-59.375-109.96-65.412C510.499,276.134,454.782,312.484,382.104,322.399z"/>
	<g>
		<path fill="#FFFFFF" d="M341.818,239.696c-2.235,0-4.456-0.033-6.669-0.081c-49.908-1.076-94.26-14.181-126.431-35.064v0.684
			c0,8.319,3.828,16.89,10.907,24.996c15.722,18.002,47.493,33.711,89.05,39.304c3.273,0.44,6.608,0.818,10,1.129
			c7.448,0.684,15.169,1.051,23.142,1.051c9.525,0,18.696-0.521,27.464-1.485c3.669-0.403,7.27-0.882,10.792-1.437
			c38.476-6.063,67.981-20.871,83.251-37.817c7.502-8.325,11.574-17.166,11.574-25.74v-0.678
			c-31.227,20.271-73.933,33.212-122.059,34.935C349.195,239.623,345.523,239.696,341.818,239.696z"/>
		<path fill="#FFFFFF" d="M341.818,186.311c63.55,0,111.486-22.998,127.388-48.444c3.723-5.957,5.693-12.048,5.693-18.01
			c0-2.834-0.451-5.698-1.316-8.563c-4.867-16.098-23.048-32.224-50.532-43.355c-9.093-3.683-19.202-6.82-30.186-9.228
			c-15.429-3.381-32.578-5.325-51.047-5.325c-16.457,0-31.861,1.547-45.938,4.273c-14.291,2.769-27.214,6.754-38.461,11.592
			c-25.797,11.097-42.799,26.655-47.42,42.173c-0.84,2.821-1.279,5.641-1.279,8.432c0,5.993,1.993,12.116,5.753,18.103
			C230.432,163.368,278.331,186.311,341.818,186.311z"/>
	</g>
	<path fill="#5D0479" d="M528.285,175.843v-55.986v-19.75l-2.629-0.804C510.902,42.218,435.451,0,341.818,0
		c-93.589,0-169.026,42.177-183.834,99.221l-2.65,0.799v19.837v56.415C66.092,185.543,0,234.153,0,294.515v85.396
		C0,447.112,81.911,499.75,186.492,499.75c67.033,0,124.751-21.633,157.55-54.866c32.8,33.233,90.518,54.866,157.55,54.866
		c104.564,0,186.484-52.638,186.484-119.839v-85.396C688.076,233.152,619.766,183.933,528.285,175.843z M634.69,294.515
		c0,31.438-54.653,66.454-133.099,66.454c-55.188,0-98.603-17.339-119.487-38.569c72.678-9.915,128.395-46.266,142.626-93.296
		C590.575,235.14,634.69,266.272,634.69,294.515z M257.418,69.251c11.248-4.838,24.17-8.824,38.461-11.592
		c14.078-2.727,29.482-4.273,45.938-4.273c18.469,0,35.618,1.944,51.047,5.325c10.983,2.407,21.093,5.544,30.186,9.228
		c27.484,11.132,45.665,27.257,50.532,43.355c0.865,2.865,1.316,5.728,1.316,8.563c0,5.962-1.971,12.053-5.693,18.01
		c-15.901,25.446-63.838,48.444-127.388,48.444c-63.487,0-111.386-22.942-127.347-48.352c-3.76-5.987-5.753-12.11-5.753-18.103
		c0-2.791,0.439-5.611,1.279-8.432C214.62,95.906,231.621,80.348,257.418,69.251z M208.719,205.235v-0.684
		c32.17,20.883,76.523,33.988,126.431,35.064c2.213,0.048,4.434,0.081,6.669,0.081c3.705,0,7.377-0.073,11.022-0.204
		c48.126-1.722,90.832-14.664,122.059-34.935v0.678c0,8.575-4.072,17.415-11.574,25.74c-15.27,16.946-44.775,31.754-83.251,37.817
		c-3.522,0.555-7.123,1.033-10.792,1.437c-8.768,0.965-17.938,1.485-27.464,1.485c-7.973,0-15.694-0.367-23.142-1.051
		c-3.393-0.311-6.727-0.688-10-1.129c-41.557-5.593-73.328-21.301-89.05-39.304C212.546,222.125,208.719,213.555,208.719,205.235z
		 M159.016,229.538c14.705,47.665,72.077,84.278,146.451,93.371c-21.075,20.996-64.229,38.06-118.974,38.06
		c-78.444,0-133.099-35.017-133.099-66.454C53.394,266.897,95.579,236.514,159.016,229.538z M186.492,446.365
		c-78.444,0-133.099-35.018-133.099-66.454v-0.694c33.596,21.806,80.474,35.138,133.099,35.138c50.353,0,95.444-12.21,128.672-32.37
		c0.098,3.91,0.475,7.77,1.117,11.571C303.389,420.679,253.663,446.365,186.492,446.365z M634.69,379.911
		c0,31.437-54.653,66.454-133.099,66.454c-67.169,0-116.896-25.687-129.788-52.81c0.642-3.802,1.019-7.66,1.117-11.571
		c33.228,20.16,78.319,32.37,128.671,32.37c52.621,0,99.501-13.335,133.099-35.145V379.911z"/>
</g>
</svg>
