<?xml version="1.0" encoding="utf-8"?>
<!-- Generator: Adobe Illustrator 16.0.0, SVG Export Plug-In . SVG Version: 6.00 Build 0)  -->
<!DOCTYPE svg PUBLIC "-//W3C//DTD SVG 1.1//EN" "http://www.w3.org/Graphics/SVG/1.1/DTD/svg11.dtd">
<svg version="1.1" id="Capa_1" xmlns="http://www.w3.org/2000/svg" xmlns:xlink="http://www.w3.org/1999/xlink" x="0px" y="0px"
	 width="473.836px" height="720.623px" viewBox="0 0 473.836 720.623" enable-background="new 0 0 473.836 720.623"
	 xml:space="preserve">
<g>
	<path fill="#5D0479" d="M359.198,405.528c-23.996-15.98-32.471-21.638-32.884-45.211c0.413-23.564,8.888-29.221,32.873-45.201
		c60.423-40.25,114.648-92.153,114.648-282.688C473.836,14.514,459.321,0,441.408,0H32.428C14.514,0,0,14.514,0,32.428
		c0,190.535,54.226,242.438,114.648,282.688c23.985,15.98,32.459,21.637,32.872,45.201c-0.413,23.573-8.888,29.231-32.883,45.211
		C54.226,445.768,0,497.682,0,688.195c0,17.902,14.514,32.428,32.428,32.428h408.98c17.913,0,32.428-14.525,32.428-32.428
		C473.836,497.682,419.61,445.768,359.198,405.528z M65.468,655.768c5.669-143.33,49.476-172.505,85.134-196.257
		c26.949-17.959,60.331-40.241,61.728-97.335h0.067c0-0.631-0.026-1.235-0.033-1.858c0.007-0.623,0.033-1.227,0.033-1.858h-0.067
		c-1.396-57.095-34.778-79.367-61.728-97.326c-35.658-23.751-79.465-52.928-85.134-196.277h342.9
		c-5.669,143.35-49.477,172.526-85.135,196.277c-26.948,17.959-60.33,40.231-61.727,97.326h-0.067c0,0.631,0.026,1.235,0.033,1.858
		c-0.007,0.623-0.033,1.227-0.033,1.858h0.067c1.396,57.095,34.778,79.376,61.727,97.335
		c35.658,23.752,79.466,52.928,85.135,196.257H65.468z"/>
	<g>
		<path fill="#5D0479" d="M235.472,360.57c1.045-67.537,48.325-93.737,76.995-112.864c14.493-9.67,29.8-19.93,43.016-38.931H114.764
			c13.227,19.001,28.533,29.261,43.026,38.931c28.66,19.127,75.285,45.327,76.33,112.357"/>
	</g>
	<g>
		<path fill="#5D0479" d="M234.458,527.998L83.793,608.012c-1.235,9.797-2.312,20.1-3.05,31.541h308.762
			c-0.729-11.273-1.795-21.492-2.998-31.16L243.685,532.77L234.458,527.998z"/>
	</g>
</g>
</svg>
